<?xml version="1.0" encoding="utf-8"?>
<!-- Generator: Adobe Illustrator 16.0.0, SVG Export Plug-In . SVG Version: 6.00 Build 0)  -->
<!DOCTYPE svg PUBLIC "-//W3C//DTD SVG 1.1//EN" "http://www.w3.org/Graphics/SVG/1.1/DTD/svg11.dtd">
<svg version="1.1" xmlns="http://www.w3.org/2000/svg" xmlns:xlink="http://www.w3.org/1999/xlink" x="0px" y="0px" width="792px"
	 height="612px" viewBox="0 0 792 612" enable-background="new 0 0 792 612" xml:space="preserve">
<g id="Layer_1" display="none">
	
		<rect x="347.395" y="256.806" display="inline" fill="none" stroke="#000000" stroke-miterlimit="10" width="95.605" height="98.501"/>
</g>
<g id="Layer_3">
	<ellipse fill="#3A6E35" cx="418.857" cy="270.547" rx="59.607" ry="58.777"/>
	<ellipse fill="#3A6E35" cx="424.852" cy="211.055" rx="33.154" ry="40.61"/>
	<ellipse fill="#3A6E35" cx="498.214" cy="247.745" rx="62.075" ry="42.392"/>
	<ellipse fill="#3A6E35" cx="481.638" cy="178.994" rx="49.731" ry="49.159"/>
	<path fill="#3A6E35" d="M599.791,222.454c0,22.428-17.364,40.609-38.798,40.609c-21.426,0-38.794-18.181-38.794-40.609
		s17.368-40.612,38.794-40.612C582.427,181.842,599.791,200.025,599.791,222.454z"/>
	<ellipse fill="#3A6E35" cx="534.895" cy="203.573" rx="25.394" ry="24.58"/>
	<ellipse fill="#3A6E35" cx="581.101" cy="282.835" rx="39.149" ry="35.088"/>
	<path fill="#3A6E35" d="M570.166,295.123c0,28.726-26.69,52.01-59.605,52.01c-32.923,0-59.607-23.284-59.607-52.01
		c0-28.721,26.685-52.009,59.607-52.009C543.476,243.114,570.166,266.402,570.166,295.123z"/>
	<ellipse fill="#3A6E35" cx="450.953" cy="303.49" rx="51.495" ry="36.154"/>
</g>
<g id="Layer_2">
	<path fill="#8BC75C" d="M437.551,431.204c0,0,24.687,14.963,45.146,14.963c20.456,0,45.85-12.112,45.85-12.112l-6.347-96.18
		l50.084-52.011c0,0,3.524-9.265,0-16.388c-3.528-7.125-19.051-5.699-19.051-5.699l-48.316,47.737v-59.849
		c0,0-9.52-19.239-19.397-18.525c-9.878,0.714-14.813,13.538-14.813,13.538l0.703,65.546l-42.323-52.722
		c0,0-14.811-5.7-19.751,1.424c-4.938,7.126,0,15.676,0,15.676l52.904,54.861l-23.983,96.894"/>
</g>
<g id="Layer_4">
	<ellipse fill="#3A6E35" cx="484.877" cy="231.714" rx="33.923" ry="26.362"/>
	<path fill="#3A6E35" d="M599.791,277.67c0,10.821-8.683,19.593-19.395,19.593c-10.718,0-19.403-8.772-19.403-19.593
		c0-10.82,8.686-19.594,19.403-19.594C591.108,258.076,599.791,266.85,599.791,277.67z"/>
	<path fill="#3A6E35" d="M439.667,265.291c0,9.689-9.001,17.544-20.105,17.544s-20.104-7.855-20.104-17.544
		c0-9.692,8.999-17.546,20.104-17.546S439.667,255.598,439.667,265.291z"/>
	<path fill="#3A6E35" d="M577.222,262.708c0,8.265-7.896,14.962-17.636,14.962c-9.742,0-17.634-6.697-17.634-14.962
		c0-8.263,7.892-14.963,17.634-14.963C569.325,247.745,577.222,254.445,577.222,262.708z"/>
	<path fill="#78AA46" d="M528.546,434.055l-43.668,12.112l-19.8-2.905l40.897-66.916l4.585-42.036c0,0,51.149-53.078,49.025-51.475
		c-2.12,1.603,10.552,11.442,10.552,11.442l-47.821,45.368L528.546,434.055z"/>
	<path d="M475.242,354.979c0.991-1.793,2.848-3.062,5.493-2.854c0.532,0.044,1.018,0.139,1.47,0.28
		c0.003-0.014,0.009-0.03,0.01-0.047c0.208-2.713-1.33-5.047-3.439-5.212c-2.113-0.166-3.989,1.896-4.198,4.609
		C474.482,352.964,474.751,354.08,475.242,354.979z"/>
	<path d="M496.495,356.661c-0.851-1.868-2.599-3.278-5.255-3.278c-0.532,0-1.027,0.058-1.487,0.166c0-0.018-0.003-0.034-0.003-0.051
		c0-2.72,1.712-4.925,3.828-4.925c2.12,0,3.831,2.205,3.831,4.925C497.409,354.709,497.058,355.802,496.495,356.661z"/>
	<g>
		<g>
			<path fill="#587F39" d="M434.565,184.086c-7.355,1.515-15.531,3.304-21.453,8.254c-6.568,5.491-8.639,13.38-9.032,21.663
				c-0.045,0.961,2.005,0.601,2.043-0.201c0.363-7.647,2.067-15.022,7.905-20.362c5.524-5.053,13.775-6.68,20.863-8.14
				C436.155,185.04,435.805,183.832,434.565,184.086L434.565,184.086z"/>
		</g>
	</g>
	<g>
		<g>
			<path fill="#587F39" d="M410.253,242.331c6.006-7.568,17.801-6.901,24.227-0.295c0.367,0.378,2.231-0.363,1.91-0.693
				c-7.278-7.483-21.396-7.154-27.975,1.136C408.005,242.995,409.952,242.709,410.253,242.331L410.253,242.331z"/>
		</g>
	</g>
	<g>
		<g>
			<path fill="#587F39" d="M378.754,250.179c-6.278,13.107-7.41,28.017,3.542,38.949c0.563,0.562,2.487-0.221,1.873-0.834
				c-10.7-10.681-9.638-25.194-3.506-37.996C381.121,249.342,379.08,249.499,378.754,250.179L378.754,250.179z"/>
		</g>
	</g>
	<g>
		<g>
			<path fill="#587F39" d="M507.155,153.776c7.495,8.937,12.55,20.751,13.952,32.41c0.307,2.547-0.473,3.791,2.152,5.005
				c5.961,2.757,12.072,0.63,18.097,2.697c0.8,0.274,2.389-0.879,1.191-1.29c-5.62-1.928-11.496-0.148-17.086-2.276
				c-3.283-1.25-2.216-4.982-2.953-8.037c-2.642-10.94-6.19-20.671-13.488-29.373C508.47,152.255,506.531,153.033,507.155,153.776
				L507.155,153.776z"/>
		</g>
	</g>
	<g>
		<g>
			<path fill="#587F39" d="M546.108,249.121c9.502-6.951,19.815-3.185,28.896,2.325c0.572,0.347,2.445-0.482,1.613-0.987
				c-10.094-6.124-21.489-9.471-31.771-1.95C543.738,249.32,545.471,249.587,546.108,249.121L546.108,249.121z"/>
		</g>
	</g>
	<g>
		<g>
			<path fill="#587F39" d="M587.422,257.286c9.755,0.906,17.264,6.054,22.723,14.031c0.433,0.633,2.392-0.073,1.873-0.83
				c-5.722-8.363-13.682-13.526-23.838-14.469C587.324,255.938,586.049,257.158,587.422,257.286L587.422,257.286z"/>
		</g>
	</g>
	<path d="M484.878,367.734c-4.18,0-7.566-1.241-10.166-3.247c-0.047,0.409-0.122,0.808-0.122,1.228
		c0,5.74,4.606,10.391,10.288,10.391c5.681,0,10.288-4.65,10.288-10.391c0-0.42-0.078-0.818-0.124-1.228
		C492.442,366.493,489.057,367.734,484.878,367.734z"/>
	<ellipse fill="#E79CC4" cx="470.032" cy="359.403" rx="2.715" ry="2.74"/>
	<path fill="#E79CC4" d="M502.448,361.744c0,1.516-1.212,2.74-2.712,2.74s-2.717-1.225-2.717-2.74c0-1.515,1.217-2.743,2.717-2.743
		S502.448,360.229,502.448,361.744z"/>
</g>
</svg>
